<svg xmlns="http://www.w3.org/2000/svg" xmlns:xlink="http://www.w3.org/1999/xlink" xmlns:lucid="lucid" width="1623.33" height="1365.79"><g transform="translate(-636.7407722219289 -420)" lucid:page-tab-id="0_0"><path d="M500 0h2000v2000H500z" fill="#fff"/><path d="M637.74 437.5a6 6 0 0 1 6-6H917.2a6 6 0 0 1 6 6v176a6 6 0 0 1-6 6H643.73a6 6 0 0 1-6-6z" fill="#fff"/><path d="M637.74 437.5a6 6 0 0 1 6-6H917.2a6 6 0 0 1 6 6v176a6 6 0 0 1-6 6H643.73a6 6 0 0 1-6-6zM637.74 471.5H923.2" stroke="#3a414a" stroke-width="2" fill="none"/><use xlink:href="#a" transform="matrix(1,0,0,1,647.7407722219289,431.5) translate(81.86610243055554 28.08376736111111)"/><use xlink:href="#b" transform="matrix(1,0,0,1,642.7407722219289,474) translate(0 24.08376736111111)"/><use xlink:href="#c" transform="matrix(1,0,0,1,642.7407722219289,474) translate(25.23871527777778 24.08376736111111)"/><use xlink:href="#d" transform="matrix(1,0,0,1,642.7407722219289,511) translate(0 24.08376736111111)"/><use xlink:href="#e" transform="matrix(1,0,0,1,642.7407722219289,511) translate(116.13498263888889 24.08376736111111)"/><use xlink:href="#f" transform="matrix(1,0,0,1,642.7407722219289,548) translate(0 24.08376736111111)"/><use xlink:href="#e" transform="matrix(1,0,0,1,642.7407722219289,548) translate(112.02256944444444 24.08376736111111)"/><use xlink:href="#g" transform="matrix(1,0,0,1,642.7407722219289,585) translate(0 24.08376736111111)"/><use xlink:href="#e" transform="matrix(1,0,0,1,642.7407722219289,585) translate(61.9140625 24.08376736111111)"/><path d="M1873.63 443a6 6 0 0 1 6-6h373.44a6 6 0 0 1 6 6v546a6 6 0 0 1-6 6h-373.44a6 6 0 0 1-6-6z" fill="#fff"/><path d="M1873.63 443a6 6 0 0 1 6-6h373.44a6 6 0 0 1 6 6v546a6 6 0 0 1-6 6h-373.44a6 6 0 0 1-6-6zM1873.63 477h385.44" stroke="#3a414a" stroke-width="2" fill="none"/><use xlink:href="#h" transform="matrix(1,0,0,1,1883.625504054923,436.9999999999997) translate(126.54926215277777 28.08376736111111)"/><use xlink:href="#b" transform="matrix(1,0,0,1,1878.625504054923,479.4999999999997) translate(0 24.08376736111111)"/><use xlink:href="#c" transform="matrix(1,0,0,1,1878.625504054923,479.4999999999997) translate(25.23871527777778 24.08376736111111)"/><use xlink:href="#i" transform="matrix(1,0,0,1,1878.625504054923,516.4999999999998) translate(0 24.08376736111111)"/><use xlink:href="#e" transform="matrix(1,0,0,1,1878.625504054923,516.4999999999998) translate(64.27951388888889 24.08376736111111)"/><use xlink:href="#g" transform="matrix(1,0,0,1,1878.625504054923,553.4999999999998) translate(0 24.08376736111111)"/><use xlink:href="#e" transform="matrix(1,0,0,1,1878.625504054923,553.4999999999998) translate(61.9140625 24.08376736111111)"/><use xlink:href="#j" transform="matrix(1,0,0,1,1878.625504054923,590.4999999999998) translate(0 24.08376736111111)"/><use xlink:href="#k" transform="matrix(1,0,0,1,1878.625504054923,590.4999999999998) translate(72.40668402777777 24.08376736111111)"/><use xlink:href="#l" transform="matrix(1,0,0,1,1878.625504054923,627.4999999999998) translate(0 24.08376736111111)"/><use xlink:href="#m" transform="matrix(1,0,0,1,1878.625504054923,627.4999999999998) translate(64.94140625 24.08376736111111)"/><use xlink:href="#n" transform="matrix(1,0,0,1,1878.625504054923,664.4999999999998) translate(0 24.08376736111111)"/><use xlink:href="#k" transform="matrix(1,0,0,1,1878.625504054923,664.4999999999998) translate(89.5073784722222 24.08376736111111)"/><use xlink:href="#o" transform="matrix(1,0,0,1,1878.625504054923,701.4999999999998) translate(0 24.08376736111111)"/><use xlink:href="#e" transform="matrix(1,0,0,1,1878.625504054923,701.4999999999998) translate(66.42795138888889 24.08376736111111)"/><use xlink:href="#p" transform="matrix(1,0,0,1,1878.625504054923,738.4999999999998) translate(0 24.08376736111111)"/><use xlink:href="#k" transform="matrix(1,0,0,1,1878.625504054923,738.4999999999998) translate(90.09331597222223 24.08376736111111)"/><use xlink:href="#q" transform="matrix(1,0,0,1,1878.625504054923,775.4999999999998) translate(0 24.08376736111111)"/><use xlink:href="#k" transform="matrix(1,0,0,1,1878.625504054923,775.4999999999998) translate(160.30815972222223 24.08376736111111)"/><use xlink:href="#r" transform="matrix(1,0,0,1,1878.625504054923,812.4999999999998) translate(0 24.08376736111111)"/><use xlink:href="#s" transform="matrix(1,0,0,1,1878.625504054923,812.4999999999998) translate(171.08289930555551 24.08376736111111)"/><use xlink:href="#t" transform="matrix(1,0,0,1,1878.625504054923,849.4999999999998) translate(0 24.08376736111111)"/><use xlink:href="#k" transform="matrix(1,0,0,1,1878.625504054923,849.4999999999998) translate(94.41189236111111 24.08376736111111)"/><use xlink:href="#u" transform="matrix(1,0,0,1,1878.625504054923,886.4999999999998) translate(0 24.08376736111111)"/><use xlink:href="#e" transform="matrix(1,0,0,1,1878.625504054923,886.4999999999998) translate(208.59375 24.08376736111111)"/><use xlink:href="#v" transform="matrix(1,0,0,1,1878.625504054923,923.4999999999998) translate(0 24.08376736111111)"/><use xlink:href="#w" transform="matrix(1,0,0,1,1878.625504054923,923.4999999999998) translate(222.34157986111111 24.08376736111111)"/><use xlink:href="#x" transform="matrix(1,0,0,1,1878.625504054923,960.4999999999998) translate(0 24.08376736111111)"/><path d="M1276.8 439a6 6 0 0 1 6-6H1514a6 6 0 0 1 6 6v102a6 6 0 0 1-6 6h-231.2a6 6 0 0 1-6-6z" fill="#fff"/><path d="M1276.8 439a6 6 0 0 1 6-6H1514a6 6 0 0 1 6 6v102a6 6 0 0 1-6 6h-231.2a6 6 0 0 1-6-6zM1276.8 473H1520" stroke="#3a414a" stroke-width="2" fill="none"/><use xlink:href="#y" transform="matrix(1,0,0,1,1286.8127520274616,433) translate(4.561848958333343 28.08376736111111)"/><use xlink:href="#z" transform="matrix(1,0,0,1,1286.8127520274616,433) translate(95.02408854166667 28.08376736111111)"/><use xlink:href="#A" transform="matrix(1,0,0,1,1281.8127520274616,475.5) translate(0 24.08376736111111)"/><use xlink:href="#k" transform="matrix(1,0,0,1,1281.8127520274616,475.5) translate(134.85243055555557 24.08376736111111)"/><use xlink:href="#B" transform="matrix(1,0,0,1,1281.8127520274616,512.5) translate(0 24.08376736111111)"/><use xlink:href="#k" transform="matrix(1,0,0,1,1281.8127520274616,512.5) translate(143.04470486111111 24.08376736111111)"/><path d="M1280 605.5a6 6 0 0 1 6-6h229.6a6 6 0 0 1 6 6v324a6 6 0 0 1-6 6H1286a6 6 0 0 1-6-6z" fill="#fff"/><path d="M1280 605.5a6 6 0 0 1 6-6h229.6a6 6 0 0 1 6 6v324a6 6 0 0 1-6 6H1286a6 6 0 0 1-6-6zM1280 639.5h241.6" stroke="#3a414a" stroke-width="2" fill="none"/><use xlink:href="#C" transform="matrix(1,0,0,1,1290,599.4999999999999) translate(54.32139756944445 28.08376736111111)"/><use xlink:href="#b" transform="matrix(1,0,0,1,1285,641.9999999999999) translate(0 24.08376736111111)"/><use xlink:href="#c" transform="matrix(1,0,0,1,1285,641.9999999999999) translate(25.23871527777778 24.08376736111111)"/><use xlink:href="#D" transform="matrix(1,0,0,1,1285,678.9999999999999) translate(0 24.08376736111111)"/><use xlink:href="#c" transform="matrix(1,0,0,1,1285,678.9999999999999) translate(155.53385416666669 24.08376736111111)"/><use xlink:href="#E" transform="matrix(1,0,0,1,1285,715.9999999999999) translate(0 24.08376736111111)"/><use xlink:href="#k" transform="matrix(1,0,0,1,1285,715.9999999999999) translate(143.04470486111111 24.08376736111111)"/><use xlink:href="#F" transform="matrix(1,0,0,1,1285,752.9999999999999) translate(0 24.08376736111111)"/><use xlink:href="#m" transform="matrix(1,0,0,1,1285,752.9999999999999) translate(104.55729166666666 24.08376736111111)"/><use xlink:href="#G" transform="matrix(1,0,0,1,1285,789.9999999999999) translate(0 24.08376736111111)"/><use xlink:href="#k" transform="matrix(1,0,0,1,1285,789.9999999999999) translate(71.58203125 24.08376736111111)"/><use xlink:href="#H" transform="matrix(1,0,0,1,1285,826.9999999999999) translate(0 24.08376736111111)"/><use xlink:href="#I" transform="matrix(1,0,0,1,1285,826.9999999999999) translate(86.15451388888889 24.08376736111111)"/><use xlink:href="#J" transform="matrix(1,0,0,1,1285,863.9999999999999) translate(0 24.08376736111111)"/><use xlink:href="#c" transform="matrix(1,0,0,1,1285,863.9999999999999) translate(122.69965277777779 24.08376736111111)"/><use xlink:href="#K" transform="matrix(1,0,0,1,1285,900.9999999999999) translate(0 24.08376736111111)"/><use xlink:href="#L" transform="matrix(1,0,0,1,1285,900.9999999999999) translate(108.40928819444444 24.08376736111111)"/><path d="M670.46 933a6 6 0 0 1 6-6h208a6 6 0 0 1 6 6v287a6 6 0 0 1-6 6h-208a6 6 0 0 1-6-6z" fill="#fff"/><path d="M670.46 933a6 6 0 0 1 6-6h208a6 6 0 0 1 6 6v287a6 6 0 0 1-6 6h-208a6 6 0 0 1-6-6zM670.46 967h220" stroke="#3a414a" stroke-width="2" fill="none"/><use xlink:href="#M" transform="matrix(1,0,0,1,680.4640100972335,927.0000000000001) translate(76.07964409722223 28.08376736111111)"/><use xlink:href="#b" transform="matrix(1,0,0,1,675.4640100972335,969.5000000000001) translate(0 24.08376736111111)"/><use xlink:href="#c" transform="matrix(1,0,0,1,675.4640100972335,969.5000000000001) translate(25.23871527777778 24.08376736111111)"/><use xlink:href="#N" transform="matrix(1,0,0,1,675.4640100972335,1006.5000000000001) translate(0 24.08376736111111)"/><use xlink:href="#k" transform="matrix(1,0,0,1,675.4640100972335,1006.5000000000001) translate(108.86501736111111 24.08376736111111)"/><use xlink:href="#O" transform="matrix(1,0,0,1,675.4640100972335,1043.5) translate(0 24.08376736111111)"/><use xlink:href="#P" transform="matrix(1,0,0,1,675.4640100972335,1043.5) translate(121.484375 24.08376736111111)"/><use xlink:href="#Q" transform="matrix(1,0,0,1,675.4640100972335,1080.5) translate(0 24.08376736111111)"/><use xlink:href="#R" transform="matrix(1,0,0,1,675.4640100972335,1080.5) translate(101.1935763888889 24.08376736111111)"/><use xlink:href="#H" transform="matrix(1,0,0,1,675.4640100972335,1117.5) translate(0 24.08376736111111)"/><use xlink:href="#I" transform="matrix(1,0,0,1,675.4640100972335,1117.5) translate(86.15451388888889 24.08376736111111)"/><use xlink:href="#J" transform="matrix(1,0,0,1,675.4640100972335,1154.5) translate(0 24.08376736111111)"/><use xlink:href="#c" transform="matrix(1,0,0,1,675.4640100972335,1154.5) translate(122.69965277777779 24.08376736111111)"/><use xlink:href="#S" transform="matrix(1,0,0,1,675.4640100972335,1191.5) translate(0 24.08376736111111)"/><use xlink:href="#L" transform="matrix(1,0,0,1,675.4640100972335,1191.5) translate(81.21744791666666 24.08376736111111)"/><path d="M775.37 700.92a9.64 9.64 0 0 1 10.2 0l111.16 69.16a3.73 3.73 0 0 1 0 6.34l-111.17 69.16a9.64 9.64 0 0 1-10.2 0L664.2 776.42a3.73 3.73 0 0 1 0-6.34z" stroke="#3a414a" stroke-width="2" fill="#fff"/><use xlink:href="#T" transform="matrix(1,0,0,1,659.1023911595812,697.75) translate(37.30903645833333 82.87152777777777)"/><path d="M780.46 697.96v-61.08" stroke="#3a414a" fill="none"/><path d="M780.94 698.5l-.48-.04-.47.03v-.55h.94z" stroke="#3a414a" stroke-width=".05" fill="#3a414a"/><path d="M780.46 622.12l4.64 14.26h-9.27z" stroke="#3a414a" fill="#3a414a"/><path d="M780.46 848.54v76.96" stroke="#3a414a" fill="none"/><path d="M780.46 848.04l.48-.03v.55H780V848zM780.94 926H780v-.5h.94z" stroke="#3a414a" stroke-width=".05" fill="#3a414a"/><path d="M1692.3 429.45a6.86 6.86 0 0 1 9.03 0l70.97 62.1a5.25 5.25 0 0 1 0 7.9l-70.97 62.1a6.86 6.86 0 0 1-9.03 0l-70.97-62.1a5.25 5.25 0 0 1 0-7.9z" stroke="#3a414a" stroke-width="2" fill="#fff"/><use xlink:href="#U" transform="matrix(1,0,0,1,1616.8127520274616,425.49999999999994) translate(31.09549479166667 78.40277777777777)"/><path d="M1095.48 423.95a6.86 6.86 0 0 1 9.04 0l70.96 62.1a5.25 5.25 0 0 1 0 7.9l-70.96 62.1a6.86 6.86 0 0 1-9.04 0l-70.96-62.1a5.25 5.25 0 0 1 0-7.9z" stroke="#3a414a" stroke-width="2" fill="#fff"/><use xlink:href="#V" transform="matrix(1,0,0,1,1020,420) translate(52.84028645833334 78.40277777777777)"/><path d="M1618.03 495.5h-42.26a6 6 0 0 0-6 6v21.32a6 6 0 0 1-6 6h-26.4" stroke="#3a414a" fill="none"/><path d="M1618.53 495.5l.04.48h-.55v-.96h.55z" stroke="#3a414a" stroke-width=".05" fill="#3a414a"/><path d="M1522.62 528.82l14.26-4.64v9.27z" stroke="#3a414a" fill="#3a414a"/><path d="M1775.6 495.5h96.53" stroke="#3a414a" fill="none"/><path d="M1775.6 495.98h-.55l.04-.48-.05-.48h.56zM1872.63 495.98h-.52v-.96h.53z" stroke="#3a414a" stroke-width=".05" fill="#3a414a"/><path d="M1178.78 490h80.65" stroke="#3a414a" fill="none"/><path d="M1178.8 490.48h-.56l.04-.48-.04-.48h.55z" stroke="#3a414a" stroke-width=".05" fill="#3a414a"/><path d="M1274.2 490l-14.27 4.63v-9.26z" stroke="#3a414a" fill="#3a414a"/><path d="M1021.22 490H924.7" stroke="#3a414a" fill="none"/><path d="M1021.72 490l.04.48h-.55v-.96h.56zM924.7 490.48h-.5v-.96h.5z" stroke="#3a414a" stroke-width=".05" fill="#3a414a"/><path d="M1276.8 1214.3a6 6 0 0 1 6-6h230.74a6 6 0 0 1 6 6v324a6 6 0 0 1-6 6H1282.8a6 6 0 0 1-6-6z" fill="#fff"/><path d="M1276.8 1214.3a6 6 0 0 1 6-6h230.74a6 6 0 0 1 6 6v324a6 6 0 0 1-6 6H1282.8a6 6 0 0 1-6-6zM1276.8 1248.3h242.74" stroke="#3a414a" stroke-width="2" fill="none"/><use xlink:href="#W" transform="matrix(1,0,0,1,1286.8127520274616,1208.2881927273882) translate(73.50629340277777 28.08376736111111)"/><use xlink:href="#b" transform="matrix(1,0,0,1,1281.8127520274616,1250.7881927273882) translate(0 24.08376736111111)"/><use xlink:href="#c" transform="matrix(1,0,0,1,1281.8127520274616,1250.7881927273882) translate(25.23871527777778 24.08376736111111)"/><use xlink:href="#D" transform="matrix(1,0,0,1,1281.8127520274616,1287.7881927273882) translate(0 24.08376736111111)"/><use xlink:href="#c" transform="matrix(1,0,0,1,1281.8127520274616,1287.7881927273882) translate(155.53385416666669 24.08376736111111)"/><use xlink:href="#X" transform="matrix(1,0,0,1,1281.8127520274616,1324.7881927273882) translate(0 24.08376736111111)"/><use xlink:href="#c" transform="matrix(1,0,0,1,1281.8127520274616,1324.7881927273882) translate(134.42925347222223 24.08376736111111)"/><use xlink:href="#F" transform="matrix(1,0,0,1,1281.8127520274616,1361.7881927273882) translate(0 24.08376736111111)"/><use xlink:href="#m" transform="matrix(1,0,0,1,1281.8127520274616,1361.7881927273882) translate(104.55729166666666 24.08376736111111)"/><use xlink:href="#G" transform="matrix(1,0,0,1,1281.8127520274616,1398.7881927273882) translate(0 24.08376736111111)"/><use xlink:href="#k" transform="matrix(1,0,0,1,1281.8127520274616,1398.7881927273882) translate(71.58203125 24.08376736111111)"/><use xlink:href="#H" transform="matrix(1,0,0,1,1281.8127520274616,1435.7881927273882) translate(0 24.08376736111111)"/><use xlink:href="#I" transform="matrix(1,0,0,1,1281.8127520274616,1435.7881927273882) translate(86.15451388888889 24.08376736111111)"/><use xlink:href="#J" transform="matrix(1,0,0,1,1281.8127520274616,1472.7881927273882) translate(0 24.08376736111111)"/><use xlink:href="#c" transform="matrix(1,0,0,1,1281.8127520274616,1472.7881927273882) translate(122.69965277777779 24.08376736111111)"/><use xlink:href="#K" transform="matrix(1,0,0,1,1281.8127520274616,1509.7881927273882) translate(0 24.08376736111111)"/><use xlink:href="#L" transform="matrix(1,0,0,1,1281.8127520274616,1509.7881927273882) translate(108.40928819444444 24.08376736111111)"/><path d="M1255.68 1602.8a6 6 0 0 1 6-6h273.45a6 6 0 0 1 6 6v176a6 6 0 0 1-6 6h-273.45a6 6 0 0 1-6-6z" fill="#fff"/><path d="M1255.68 1602.8a6 6 0 0 1 6-6h273.45a6 6 0 0 1 6 6v176a6 6 0 0 1-6 6h-273.45a6 6 0 0 1-6-6zM1255.68 1636.8h285.45" stroke="#3a414a" stroke-width="2" fill="none"/><use xlink:href="#Y" transform="matrix(1,0,0,1,1265.6831381384259,1596.788192727388) translate(78.22569444444446 28.08376736111111)"/><use xlink:href="#Z" transform="matrix(1,0,0,1,1260.6831381384259,1639.288192727388) translate(0 24.08376736111111)"/><use xlink:href="#k" transform="matrix(1,0,0,1,1260.6831381384259,1639.288192727388) translate(145.06293402777777 24.08376736111111)"/><use xlink:href="#d" transform="matrix(1,0,0,1,1260.6831381384259,1676.288192727388) translate(0 24.08376736111111)"/><use xlink:href="#e" transform="matrix(1,0,0,1,1260.6831381384259,1676.288192727388) translate(116.13498263888889 24.08376736111111)"/><use xlink:href="#f" transform="matrix(1,0,0,1,1260.6831381384259,1713.288192727388) translate(0 24.08376736111111)"/><use xlink:href="#e" transform="matrix(1,0,0,1,1260.6831381384259,1713.288192727388) translate(112.02256944444444 24.08376736111111)"/><use xlink:href="#g" transform="matrix(1,0,0,1,1260.6831381384259,1750.288192727388) translate(0 24.08376736111111)"/><use xlink:href="#e" transform="matrix(1,0,0,1,1260.6831381384259,1750.288192727388) translate(61.9140625 24.08376736111111)"/><path d="M1097 631.43a7.18 7.18 0 0 1 9.2 0l70.8 59.12a5 5 0 0 1 0 7.7l-70.8 59.12a7.18 7.18 0 0 1-9.2 0l-70.8-59.12a5 5 0 0 1 0-7.7z" stroke="#3a414a" stroke-width="2" fill="#fff"/><g><use xlink:href="#aa" transform="matrix(1,0,0,1,1021.5936239862692,627.5811333322592) translate(51.049921874999995 75.96527777777777)"/></g><path d="M924.7 489.75h43.1a6 6 0 0 1 6 6V688.4a6 6 0 0 0 6 6h43.1" stroke="#3a414a" fill="none"/><path d="M924.7 490.23h-.5v-.95h.5zM1023.4 694.4l.04.48h-.56v-.96h.56z" stroke="#3a414a" stroke-width=".05" fill="#3a414a"/><path d="M1180.3 694.4h82.32" stroke="#3a414a" fill="none"/><path d="M1180.3 694.88h-.55l.04-.48-.05-.48h.55z" stroke="#3a414a" stroke-width=".05" fill="#3a414a"/><path d="M1277.38 694.4l-14.26 4.63v-9.26z" stroke="#3a414a" fill="#3a414a"/><path d="M1095.4 1164.1a7.18 7.18 0 0 1 9.2 0l70.8 59.12a5 5 0 0 1 0 7.7l-70.8 59.12a7.18 7.18 0 0 1-9.2 0l-70.8-59.13a5 5 0 0 1 0-7.68z" stroke="#3a414a" stroke-width="2" fill="#fff"/><g><use xlink:href="#aa" transform="matrix(1,0,0,1,1020,1160.2500000529103) translate(51.049921874999995 75.96527777777777)"/></g><path d="M1178.7 1227.07h80.73" stroke="#3a414a" fill="none"/><path d="M1178.7 1227.54h-.54l.04-.47-.04-.48h.55z" stroke="#3a414a" stroke-width=".05" fill="#3a414a"/><path d="M1274.2 1227.07l-14.27 4.63v-9.27z" stroke="#3a414a" fill="#3a414a"/><path d="M924.7 489.75H967a6 6 0 0 1 6 6v725.32a6 6 0 0 0 6 6h42.3" stroke="#3a414a" fill="none"/><path d="M924.7 490.23h-.5v-.95h.5zM1021.8 1227.07l.04.47h-.55v-.95h.54z" stroke="#3a414a" stroke-width=".05" fill="#3a414a"/><path d="M1097.08 1604.24a6.86 6.86 0 0 1 9.03 0l70.98 62.1a5.25 5.25 0 0 1 0 7.9l-70.97 62.1a6.86 6.86 0 0 1-9.02 0l-70.97-62.1a5.25 5.25 0 0 1 0-7.9z" stroke="#3a414a" stroke-width="2" fill="#fff"/><g><use xlink:href="#ab" transform="matrix(1,0,0,1,1021.5936239862692,1600.2881927273884) translate(51.836597222222224 78.40277777777777)"/></g><path d="M1180.38 1670.3h73.8" stroke="#3a414a" fill="none"/><path d="M1180.4 1670.76h-.57l.05-.47-.05-.5h.56zM1254.68 1670.76h-.5v-.95h.5z" stroke="#3a414a" stroke-width=".05" fill="#3a414a"/><path d="M1022.8 1670.3h-59.4a6 6 0 0 1-6-6v-487.8a6 6 0 0 0-6-6h-43.55" stroke="#3a414a" fill="none"/><path d="M1023.3 1670.3l.05.46h-.55v-.95h.55z" stroke="#3a414a" stroke-width=".05" fill="#3a414a"/><path d="M893.08 1170.5l14.27-4.63v9.27z" stroke="#3a414a" fill="#3a414a"/><path d="M1101.6 1601.04V1495.7a6 6 0 0 1 6-6h151.83" stroke="#3a414a" fill="none"/><path d="M1102.07 1601.57l-.48-.03-.48.03v-.54h.95z" stroke="#3a414a" stroke-width=".05" fill="#3a414a"/><path d="M1274.2 1489.7l-14.27 4.65v-9.27z" stroke="#3a414a" fill="#3a414a"/><path d="M1101.6 1601.04v-33.5a6 6 0 0 1 6-6h449a6 6 0 0 0 6-6v-668.6a6 6 0 0 0-6-6h-17.62" stroke="#3a414a" fill="none"/><path d="M1102.07 1601.57l-.48-.03-.48.03v-.54h.95z" stroke="#3a414a" stroke-width=".05" fill="#3a414a"/><path d="M1524.2 880.93l14.28-4.63v9.27z" stroke="#3a414a" fill="#3a414a"/><path d="M1691.92 670.15a8.46 8.46 0 0 1 9.8 0l81.88 58.1a4.25 4.25 0 0 1 0 6.93l-81.9 58.08a8.46 8.46 0 0 1-9.78 0l-81.9-58.08a4.25 4.25 0 0 1 0-6.94z" stroke="#3a414a" stroke-width="2" fill="#fff"/><g><use xlink:href="#ac" transform="matrix(1,0,0,1,1605.1305042120196,666.6808736791767) translate(31.104609375000006 72.53777777777778)"/></g><path d="M1786.9 731.7h36.6a6 6 0 0 0 6-6V500.37a6 6 0 0 1 6-6h36.63" stroke="#3a414a" fill="none"/><path d="M1786.9 732.18h-.55l.05-.47-.05-.47h.56zM1872.63 494.83h-.52v-.95h.53z" stroke="#3a414a" stroke-width=".05" fill="#3a414a"/><path d="M1606.73 731.7h-67.75" stroke="#3a414a" fill="none"/><path d="M1607.23 731.7l.04.48h-.56v-.95h.57z" stroke="#3a414a" stroke-width=".05" fill="#3a414a"/><path d="M1524.2 731.7l14.28-4.63v9.27z" stroke="#3a414a" fill="#3a414a"/><path d="M1393.66 998.95a6.86 6.86 0 0 1 9.03 0l70.96 62.1a5.25 5.25 0 0 1 0 7.9l-70.97 62.1a6.86 6.86 0 0 1-9.04 0l-70.97-62.1a5.25 5.25 0 0 1 0-7.9z" stroke="#3a414a" stroke-width="2" fill="#fff"/><g><use xlink:href="#ad" transform="matrix(1,0,0,1,1318.174370965114,994.9999999999998) translate(42.01129340277778 78.40277777777777)"/></g><path d="M1398.17 995.75V937" stroke="#3a414a" fill="none"/><path d="M1398.65 996.3l-.48-.05-.47.04v-.56h.95zM1398.65 937h-.95v-.5h.95z" stroke="#3a414a" stroke-width=".05" fill="#3a414a"/><path d="M1398.17 1134.25v56.65" stroke="#3a414a" fill="none"/><path d="M1398.17 1133.75l.48-.04v.56h-.95v-.55z" stroke="#3a414a" stroke-width=".05" fill="#3a414a"/><path d="M1398.17 1205.67l-4.63-14.27h9.27z" stroke="#3a414a" fill="#3a414a"/><defs><path d="M783 20c-382 0-661-292-661-764 0-473 279-766 661-766 302 0 548 182 601 489h-190c-42-204-217-313-411-313-268 0-476 208-476 590 0 381 209 588 476 588 195 0 369-110 411-313h190c-52 303-296 489-601 489" id="ae"/><path d="M537 14c-226 0-379-139-379-422v-710h180v695c0 172 97 275 253 275 160 0 281-109 281-300v-670h181V0H879v-209C806-46 684 14 537 14" id="af"/><path d="M538 24C308 24 148-78 108-271l171-41c32 123 123 178 257 178 156 0 256-77 256-169 0-77-54-128-164-154l-186-44c-203-48-300-148-300-305 0-192 176-326 414-326 230 0 351 112 402 269l-163 42c-31-80-94-158-238-158-133 0-233 69-233 162 0 83 57 129 188 160l169 40c203 48 298 149 298 302 0 196-179 339-441 339" id="ag"/><path d="M598-1118v154H368v674c0 100 37 144 132 144 23 0 62-6 92-12L629-6c-37 13-88 20-134 20-193 0-307-107-307-290v-688H20v-154h168v-266h180v266h230" id="ah"/><path d="M613 24c-304 0-509-231-509-576 0-350 205-580 509-580 305 0 511 230 511 580 0 345-206 576-511 576zm0-161c226 0 329-195 329-415 0-222-103-419-329-419-223 0-326 196-326 419 0 220 103 415 326 415" id="ai"/><path d="M158 0v-1118h175l1 205c55-151 181-225 313-225 147 0 245 90 285 228 53-141 190-228 352-228 194 0 352 125 352 384V0h-181v-749c0-161-105-225-225-225-151 0-243 103-243 244V0H807v-767c0-124-93-207-219-207-131 0-250 92-250 270V0H158" id="aj"/><path d="M628 24c-324 0-524-230-524-574 0-343 198-582 503-582 237 0 487 146 487 559v75H286c9 234 145 362 343 362 132 0 231-58 273-172l174 48C1024-91 857 24 628 24zM287-650h624c-17-190-120-322-304-322-192 0-309 151-320 322" id="ak"/><path d="M158 0v-1118h174v172h12c41-113 157-188 290-188 26 0 70 2 91 3v181c-11-2-60-10-108-10-161 0-279 109-279 260V0H158" id="al"/><g id="a"><use transform="matrix(0.010850694444444444,0,0,0.010850694444444444,0,0)" xlink:href="#ae"/><use transform="matrix(0.010850694444444444,0,0,0.010850694444444444,16.23263888888889,0)" xlink:href="#af"/><use transform="matrix(0.010850694444444444,0,0,0.010850694444444444,29.37282986111111,0)" xlink:href="#ag"/><use transform="matrix(0.010850694444444444,0,0,0.010850694444444444,41.10243055555556,0)" xlink:href="#ah"/><use transform="matrix(0.010850694444444444,0,0,0.010850694444444444,48.15538194444445,0)" xlink:href="#ai"/><use transform="matrix(0.010850694444444444,0,0,0.010850694444444444,61.48003472222223,0)" xlink:href="#aj"/><use transform="matrix(0.010850694444444444,0,0,0.010850694444444444,80.94618055555556,0)" xlink:href="#ak"/><use transform="matrix(0.010850694444444444,0,0,0.010850694444444444,93.90190972222221,0)" xlink:href="#al"/></g><path d="M158 0v-1118h180V0H158zm91-1301c-68 0-125-53-125-119s57-119 125-119c69 0 126 53 126 119s-57 119-126 119" id="am"/><path d="M577 24c-279 0-473-224-473-580 0-354 195-576 474-576 218 0 287 134 324 193h14v-551h180V0H922v-173h-20C865-111 790 24 577 24zm27-161c203 0 314-172 314-421 0-247-108-413-314-413-212 0-317 181-317 413 0 235 108 421 317 421" id="an"/><g id="b"><use transform="matrix(0.010850694444444444,0,0,0.010850694444444444,0,0)" xlink:href="#am"/><use transform="matrix(0.010850694444444444,0,0,0.010850694444444444,5.381944444444445,0)" xlink:href="#an"/><path d="M-1.1 4.54h21.2v1.52H-1.1z"/></g><path d="M338-670V0H158v-1118h173l1 207c72-158 192-221 342-221 226 0 378 139 378 422V0H872v-695c0-172-96-275-252-275-161 0-282 109-282 300" id="ao"/><g id="c"><use transform="matrix(0.010850694444444444,0,0,0.010850694444444444,0,0)" xlink:href="#am"/><use transform="matrix(0.010850694444444444,0,0,0.010850694444444444,5.381944444444445,0)" xlink:href="#ao"/><use transform="matrix(0.010850694444444444,0,0,0.010850694444444444,18.51128472222222,0)" xlink:href="#ah"/></g><path d="M678-1118v154H420V0H240v-964H20v-154h220v-149c0-194 155-293 318-293 85 0 141 18 168 30l-50 154c-19-6-47-17-97-17-111 0-159 58-159 166v109h258" id="ap"/><path d="M934 0v166H0V0h934" id="aq"/><path d="M471 26C259 26 90-98 90-318c0-256 228-303 435-329 202-27 287-16 287-108 0-139-79-219-234-219-161 0-248 86-283 164l-173-57c86-203 278-265 451-265 150 0 419 46 419 395V0H815v-152h-12C765-73 660 26 471 26zm31-159c199 0 310-134 310-271v-155c-30 35-226 55-295 64-131 17-246 59-246 186 0 116 97 176 231 176" id="ar"/><g id="d"><use transform="matrix(0.010850694444444444,0,0,0.010850694444444444,0,0)" xlink:href="#ap"/><use transform="matrix(0.010850694444444444,0,0,0.010850694444444444,8.22482638888889,0)" xlink:href="#am"/><use transform="matrix(0.010850694444444444,0,0,0.010850694444444444,13.606770833333332,0)" xlink:href="#al"/><use transform="matrix(0.010850694444444444,0,0,0.010850694444444444,21.97265625,0)" xlink:href="#ag"/><use transform="matrix(0.010850694444444444,0,0,0.010850694444444444,33.70225694444444,0)" xlink:href="#ah"/><use transform="matrix(0.010850694444444444,0,0,0.010850694444444444,40.97222222222222,0)" xlink:href="#aq"/><use transform="matrix(0.010850694444444444,0,0,0.010850694444444444,51.85546875,0)" xlink:href="#ao"/><use transform="matrix(0.010850694444444444,0,0,0.010850694444444444,64.98480902777777,0)" xlink:href="#ar"/><use transform="matrix(0.010850694444444444,0,0,0.010850694444444444,77.46310763888889,0)" xlink:href="#aj"/><use transform="matrix(0.010850694444444444,0,0,0.010850694444444444,96.92925347222221,0)" xlink:href="#ak"/></g><path d="M481 0L54-1118h197c107 314 236 620 325 951 87-331 217-637 324-951h197L670 0H481" id="as"/><path d="M613 24c-304 0-509-231-509-576 0-350 205-580 509-580 216 0 392 114 453 309l-173 49c-33-115-133-197-280-197-223 0-326 196-326 419 0 220 103 415 326 415 150 0 252-85 285-206l172 49C1010-95 832 24 613 24" id="at"/><path d="M338-670V0H158v-1490h180v566c73-149 190-208 336-208 226 0 379 139 379 422V0H872v-695c0-172-96-275-252-275-161 0-282 109-282 300" id="au"/><path d="M218-607c0-325 108-727 258-974h175c-155 315-250 682-250 974 0 265 78 531 250 886H476C306-10 218-315 218-607" id="av"/><path d="M154 0v-137l495-537c165-179 249-281 249-418 0-156-121-253-280-253-170 0-278 110-278 278H158c0-264 200-443 465-443 266 0 455 183 455 416 0 161-73 288-336 568L416-179v12h687V0H154" id="aw"/><path d="M626 20c-262 0-458-168-468-396h184c12 133 134 229 284 229 180 0 311-137 311-326 0-192-136-335-323-335-92 0-196 33-255 78l-178-22 88-738h784v167H429l-51 435h8c61-51 160-87 263-87 273 0 474 211 474 499 0 286-210 496-497 496" id="ax"/><path d="M96 279C273-86 346-350 346-607c0-292-95-659-250-974h175c150 246 258 650 258 974 0 297-91 602-258 886H96" id="ay"/><g id="e"><use transform="matrix(0.010850694444444444,0,0,0.010850694444444444,0,0)" xlink:href="#as"/><use transform="matrix(0.010850694444444444,0,0,0.010850694444444444,12.38064236111111,0)" xlink:href="#ar"/><use transform="matrix(0.010850694444444444,0,0,0.010850694444444444,24.85894097222222,0)" xlink:href="#al"/><use transform="matrix(0.010850694444444444,0,0,0.010850694444444444,32.85590277777778,0)" xlink:href="#at"/><use transform="matrix(0.010850694444444444,0,0,0.010850694444444444,45.55121527777778,0)" xlink:href="#au"/><use transform="matrix(0.010850694444444444,0,0,0.010850694444444444,58.69140625,0)" xlink:href="#ar"/><use transform="matrix(0.010850694444444444,0,0,0.010850694444444444,71.16970486111111,0)" xlink:href="#al"/><use transform="matrix(0.010850694444444444,0,0,0.010850694444444444,79.53559027777779,0)" xlink:href="#av"/><use transform="matrix(0.010850694444444444,0,0,0.010850694444444444,87.64105902777779,0)" xlink:href="#aw"/><use transform="matrix(0.010850694444444444,0,0,0.010850694444444444,101.1935763888889,0)" xlink:href="#ax"/><use transform="matrix(0.010850694444444444,0,0,0.010850694444444444,114.70269097222224,0)" xlink:href="#ax"/><use transform="matrix(0.010850694444444444,0,0,0.010850694444444444,128.21180555555557,0)" xlink:href="#ay"/></g><path d="M338-1490V0H158v-1490h180" id="az"/><g id="f"><use transform="matrix(0.010850694444444444,0,0,0.010850694444444444,0,0)" xlink:href="#az"/><use transform="matrix(0.010850694444444444,0,0,0.010850694444444444,5.381944444444445,0)" xlink:href="#ar"/><use transform="matrix(0.010850694444444444,0,0,0.010850694444444444,17.860243055555557,0)" xlink:href="#ag"/><use transform="matrix(0.010850694444444444,0,0,0.010850694444444444,29.58984375,0)" xlink:href="#ah"/><use transform="matrix(0.010850694444444444,0,0,0.010850694444444444,36.85980902777778,0)" xlink:href="#aq"/><use transform="matrix(0.010850694444444444,0,0,0.010850694444444444,47.74305555555556,0)" xlink:href="#ao"/><use transform="matrix(0.010850694444444444,0,0,0.010850694444444444,60.87239583333333,0)" xlink:href="#ar"/><use transform="matrix(0.010850694444444444,0,0,0.010850694444444444,73.35069444444444,0)" xlink:href="#aj"/><use transform="matrix(0.010850694444444444,0,0,0.010850694444444444,92.81684027777777,0)" xlink:href="#ak"/></g><g id="g"><use transform="matrix(0.010850694444444444,0,0,0.010850694444444444,0,0)" xlink:href="#ak"/><use transform="matrix(0.010850694444444444,0,0,0.010850694444444444,12.955729166666666,0)" xlink:href="#aj"/><use transform="matrix(0.010850694444444444,0,0,0.010850694444444444,32.421875,0)" xlink:href="#ar"/><use transform="matrix(0.010850694444444444,0,0,0.010850694444444444,44.90017361111111,0)" xlink:href="#am"/><use transform="matrix(0.010850694444444444,0,0,0.010850694444444444,50.28211805555556,0)" xlink:href="#az"/></g><path d="M180 0v-1490h510c348 0 508 194 508 460 0 198-88 351-276 417L1256 0h-220L726-579c-117 2-238 0-356 1V0H180zm190-747h312c235 0 327-108 327-283 0-177-92-293-329-293H370v576" id="aA"/><g id="h"><use transform="matrix(0.010850694444444444,0,0,0.010850694444444444,0,0)" xlink:href="#aA"/><use transform="matrix(0.010850694444444444,0,0,0.010850694444444444,13.975694444444445,0)" xlink:href="#ak"/><use transform="matrix(0.010850694444444444,0,0,0.010850694444444444,26.931423611111104,0)" xlink:href="#ag"/><use transform="matrix(0.010850694444444444,0,0,0.010850694444444444,38.66102430555555,0)" xlink:href="#ah"/><use transform="matrix(0.010850694444444444,0,0,0.010850694444444444,46.03949652777778,0)" xlink:href="#ar"/><use transform="matrix(0.010850694444444444,0,0,0.010850694444444444,58.517795138888886,0)" xlink:href="#af"/><use transform="matrix(0.010850694444444444,0,0,0.010850694444444444,71.65798611111111,0)" xlink:href="#al"/><use transform="matrix(0.010850694444444444,0,0,0.010850694444444444,80.02387152777779,0)" xlink:href="#ar"/><use transform="matrix(0.010850694444444444,0,0,0.010850694444444444,92.5021701388889,0)" xlink:href="#ao"/><use transform="matrix(0.010850694444444444,0,0,0.010850694444444444,105.63151041666666,0)" xlink:href="#ah"/></g><g id="i"><use transform="matrix(0.010850694444444444,0,0,0.010850694444444444,0,0)" xlink:href="#ao"/><use transform="matrix(0.010850694444444444,0,0,0.010850694444444444,13.129340277777777,0)" xlink:href="#ar"/><use transform="matrix(0.010850694444444444,0,0,0.010850694444444444,25.60763888888889,0)" xlink:href="#aj"/><use transform="matrix(0.010850694444444444,0,0,0.010850694444444444,45.07378472222221,0)" xlink:href="#ak"/></g><path d="M158 418v-1536h174v179h20c37-59 106-193 324-193 279 0 474 222 474 576 0 356-194 580-473 580-213 0-288-135-325-197h-14v591H158zm492-555c209 0 317-186 317-421 0-232-105-413-317-413-206 0-314 166-314 413 0 249 111 421 314 421" id="aB"/><g id="j"><use transform="matrix(0.010850694444444444,0,0,0.010850694444444444,0,0)" xlink:href="#aB"/><use transform="matrix(0.010850694444444444,0,0,0.010850694444444444,13.606770833333332,0)" xlink:href="#au"/><use transform="matrix(0.010850694444444444,0,0,0.010850694444444444,26.746961805555554,0)" xlink:href="#ai"/><use transform="matrix(0.010850694444444444,0,0,0.010850694444444444,40.07161458333333,0)" xlink:href="#ao"/><use transform="matrix(0.010850694444444444,0,0,0.010850694444444444,53.20095486111111,0)" xlink:href="#ak"/></g><g id="k"><use transform="matrix(0.010850694444444444,0,0,0.010850694444444444,0,0)" xlink:href="#am"/><use transform="matrix(0.010850694444444444,0,0,0.010850694444444444,5.381944444444445,0)" xlink:href="#ao"/><use transform="matrix(0.010850694444444444,0,0,0.010850694444444444,18.51128472222222,0)" xlink:href="#ah"/></g><g id="l"><use transform="matrix(0.010850694444444444,0,0,0.010850694444444444,0,0)" xlink:href="#aj"/><use transform="matrix(0.010850694444444444,0,0,0.010850694444444444,19.466145833333332,0)" xlink:href="#ak"/><use transform="matrix(0.010850694444444444,0,0,0.010850694444444444,32.421875,0)" xlink:href="#ao"/><use transform="matrix(0.010850694444444444,0,0,0.010850694444444444,45.55121527777778,0)" xlink:href="#af"/></g><path d="M677 24c-213 0-288-135-325-197h-20V0H158v-1490h180v551h14c37-59 106-193 324-193 279 0 474 222 474 576 0 356-194 580-473 580zm-27-161c209 0 317-186 317-421 0-232-105-413-317-413-206 0-314 166-314 413 0 249 111 421 314 421" id="aC"/><g id="m"><use transform="matrix(0.010850694444444444,0,0,0.010850694444444444,0,0)" xlink:href="#aC"/><use transform="matrix(0.010850694444444444,0,0,0.010850694444444444,13.606770833333332,0)" xlink:href="#az"/><use transform="matrix(0.010850694444444444,0,0,0.010850694444444444,18.98871527777778,0)" xlink:href="#ai"/><use transform="matrix(0.010850694444444444,0,0,0.010850694444444444,32.31336805555556,0)" xlink:href="#aC"/></g><path d="M611 442c-248 0-391-105-460-228l146-94c47 65 117 165 314 165 178 0 307-82 307-266v-224h-17C863-141 792-18 576-18c-268 0-472-195-472-546 0-346 197-568 476-568 216 0 288 133 326 193h17v-179h175V29c0 289-215 413-487 413zm-5-620c203 0 314-146 314-390 0-237-108-403-314-403-213 0-319 180-319 403 0 230 109 390 319 390" id="aD"/><g id="n"><use transform="matrix(0.010850694444444444,0,0,0.010850694444444444,0,0)" xlink:href="#aC"/><use transform="matrix(0.010850694444444444,0,0,0.010850694444444444,13.606770833333332,0)" xlink:href="#af"/><use transform="matrix(0.010850694444444444,0,0,0.010850694444444444,26.746961805555554,0)" xlink:href="#am"/><use transform="matrix(0.010850694444444444,0,0,0.010850694444444444,32.12890625,0)" xlink:href="#az"/><use transform="matrix(0.010850694444444444,0,0,0.010850694444444444,37.51085069444444,0)" xlink:href="#an"/><use transform="matrix(0.010850694444444444,0,0,0.010850694444444444,51.11762152777778,0)" xlink:href="#am"/><use transform="matrix(0.010850694444444444,0,0,0.010850694444444444,56.49956597222221,0)" xlink:href="#ao"/><use transform="matrix(0.010850694444444444,0,0,0.010850694444444444,69.62890624999999,0)" xlink:href="#aD"/></g><g id="o"><use transform="matrix(0.010850694444444444,0,0,0.010850694444444444,0,0)" xlink:href="#ag"/><use transform="matrix(0.010850694444444444,0,0,0.010850694444444444,11.729600694444445,0)" xlink:href="#ah"/><use transform="matrix(0.010850694444444444,0,0,0.010850694444444444,18.99956597222222,0)" xlink:href="#al"/><use transform="matrix(0.010850694444444444,0,0,0.010850694444444444,26.99652777777778,0)" xlink:href="#ak"/><use transform="matrix(0.010850694444444444,0,0,0.010850694444444444,39.95225694444444,0)" xlink:href="#ak"/><use transform="matrix(0.010850694444444444,0,0,0.010850694444444444,52.90798611111111,0)" xlink:href="#ah"/></g><path d="M126 0v-134l627-806v-11H146v-167h839v143L376-178v11h629V0H126" id="aE"/><g id="p"><use transform="matrix(0.010850694444444444,0,0,0.010850694444444444,0,0)" xlink:href="#aE"/><use transform="matrix(0.010850694444444444,0,0,0.010850694444444444,12.272135416666666,0)" xlink:href="#am"/><use transform="matrix(0.010850694444444444,0,0,0.010850694444444444,17.65407986111111,0)" xlink:href="#aB"/><use transform="matrix(0.010850694444444444,0,0,0.010850694444444444,31.260850694444443,0)" xlink:href="#at"/><use transform="matrix(0.010850694444444444,0,0,0.010850694444444444,43.95616319444444,0)" xlink:href="#ai"/><use transform="matrix(0.010850694444444444,0,0,0.010850694444444444,57.28081597222222,0)" xlink:href="#an"/><use transform="matrix(0.010850694444444444,0,0,0.010850694444444444,70.88758680555556,0)" xlink:href="#ak"/></g><path d="M140 405l46-156c120 36 205 19 263-150l32-93L54-1118h197c107 313 237 620 324 950 87-331 219-637 326-950h196L606 167c-68 178-176 259-334 259-64 0-113-12-132-21" id="aF"/><g id="q"><use transform="matrix(0.010850694444444444,0,0,0.010850694444444444,0,0)" xlink:href="#au"/><use transform="matrix(0.010850694444444444,0,0,0.010850694444444444,12.81467013888889,0)" xlink:href="#aF"/><use transform="matrix(0.010850694444444444,0,0,0.010850694444444444,24.869791666666664,0)" xlink:href="#aD"/><use transform="matrix(0.010850694444444444,0,0,0.010850694444444444,38.498263888888886,0)" xlink:href="#am"/><use transform="matrix(0.010850694444444444,0,0,0.010850694444444444,43.88020833333333,0)" xlink:href="#ak"/><use transform="matrix(0.010850694444444444,0,0,0.010850694444444444,56.835937499999986,0)" xlink:href="#ao"/><use transform="matrix(0.010850694444444444,0,0,0.010850694444444444,69.96527777777777,0)" xlink:href="#ak"/><use transform="matrix(0.010850694444444444,0,0,0.010850694444444444,82.92100694444444,0)" xlink:href="#aq"/><use transform="matrix(0.010850694444444444,0,0,0.010850694444444444,93.80425347222221,0)" xlink:href="#al"/><use transform="matrix(0.010850694444444444,0,0,0.010850694444444444,102.1701388888889,0)" xlink:href="#ar"/><use transform="matrix(0.010850694444444444,0,0,0.010850694444444444,114.64843750000001,0)" xlink:href="#ah"/><use transform="matrix(0.010850694444444444,0,0,0.010850694444444444,121.9184027777778,0)" xlink:href="#am"/><use transform="matrix(0.010850694444444444,0,0,0.010850694444444444,127.30034722222224,0)" xlink:href="#ao"/><use transform="matrix(0.010850694444444444,0,0,0.010850694444444444,140.4296875,0)" xlink:href="#aD"/></g><g id="r"><use transform="matrix(0.010850694444444444,0,0,0.010850694444444444,0,0)" xlink:href="#am"/><use transform="matrix(0.010850694444444444,0,0,0.010850694444444444,5.381944444444445,0)" xlink:href="#ao"/><use transform="matrix(0.010850694444444444,0,0,0.010850694444444444,18.51128472222222,0)" xlink:href="#ag"/><use transform="matrix(0.010850694444444444,0,0,0.010850694444444444,30.240885416666664,0)" xlink:href="#aB"/><use transform="matrix(0.010850694444444444,0,0,0.010850694444444444,43.84765625,0)" xlink:href="#ak"/><use transform="matrix(0.010850694444444444,0,0,0.010850694444444444,56.803385416666664,0)" xlink:href="#at"/><use transform="matrix(0.010850694444444444,0,0,0.010850694444444444,69.49869791666666,0)" xlink:href="#ah"/><use transform="matrix(0.010850694444444444,0,0,0.010850694444444444,76.76866319444443,0)" xlink:href="#am"/><use transform="matrix(0.010850694444444444,0,0,0.010850694444444444,82.15060763888887,0)" xlink:href="#ai"/><use transform="matrix(0.010850694444444444,0,0,0.010850694444444444,95.47526041666664,0)" xlink:href="#ao"/><use transform="matrix(0.010850694444444444,0,0,0.010850694444444444,108.60460069444441,0)" xlink:href="#aq"/><use transform="matrix(0.010850694444444444,0,0,0.010850694444444444,118.73914930555553,0)" xlink:href="#an"/><use transform="matrix(0.010850694444444444,0,0,0.010850694444444444,132.34592013888886,0)" xlink:href="#ar"/><use transform="matrix(0.010850694444444444,0,0,0.010850694444444444,144.82421874999997,0)" xlink:href="#ah"/><use transform="matrix(0.010850694444444444,0,0,0.010850694444444444,151.87717013888886,0)" xlink:href="#ak"/></g><g id="s"><use transform="matrix(0.010850694444444444,0,0,0.010850694444444444,0,0)" xlink:href="#an"/><use transform="matrix(0.010850694444444444,0,0,0.010850694444444444,13.606770833333332,0)" xlink:href="#ar"/><use transform="matrix(0.010850694444444444,0,0,0.010850694444444444,26.085069444444443,0)" xlink:href="#ah"/><use transform="matrix(0.010850694444444444,0,0,0.010850694444444444,33.13802083333333,0)" xlink:href="#ak"/></g><g id="t"><use transform="matrix(0.010850694444444444,0,0,0.010850694444444444,0,0)" xlink:href="#aC"/><use transform="matrix(0.010850694444444444,0,0,0.010850694444444444,13.606770833333332,0)" xlink:href="#ai"/><use transform="matrix(0.010850694444444444,0,0,0.010850694444444444,26.931423611111104,0)" xlink:href="#al"/><use transform="matrix(0.010850694444444444,0,0,0.010850694444444444,34.928385416666664,0)" xlink:href="#ai"/><use transform="matrix(0.010850694444444444,0,0,0.010850694444444444,48.25303819444444,0)" xlink:href="#af"/><use transform="matrix(0.010850694444444444,0,0,0.010850694444444444,61.393229166666664,0)" xlink:href="#aD"/><use transform="matrix(0.010850694444444444,0,0,0.010850694444444444,75.02170138888889,0)" xlink:href="#au"/></g><g id="u"><use transform="matrix(0.010850694444444444,0,0,0.010850694444444444,0,0)" xlink:href="#at"/><use transform="matrix(0.010850694444444444,0,0,0.010850694444444444,12.6953125,0)" xlink:href="#af"/><use transform="matrix(0.010850694444444444,0,0,0.010850694444444444,25.83550347222222,0)" xlink:href="#am"/><use transform="matrix(0.010850694444444444,0,0,0.010850694444444444,31.217447916666664,0)" xlink:href="#ag"/><use transform="matrix(0.010850694444444444,0,0,0.010850694444444444,42.94704861111111,0)" xlink:href="#am"/><use transform="matrix(0.010850694444444444,0,0,0.010850694444444444,48.32899305555556,0)" xlink:href="#ao"/><use transform="matrix(0.010850694444444444,0,0,0.010850694444444444,61.45833333333333,0)" xlink:href="#ak"/><use transform="matrix(0.010850694444444444,0,0,0.010850694444444444,74.4140625,0)" xlink:href="#aq"/><use transform="matrix(0.010850694444444444,0,0,0.010850694444444444,84.54861111111111,0)" xlink:href="#an"/><use transform="matrix(0.010850694444444444,0,0,0.010850694444444444,98.15538194444444,0)" xlink:href="#ak"/><use transform="matrix(0.010850694444444444,0,0,0.010850694444444444,111.11111111111111,0)" xlink:href="#ag"/><use transform="matrix(0.010850694444444444,0,0,0.010850694444444444,122.84071180555556,0)" xlink:href="#at"/><use transform="matrix(0.010850694444444444,0,0,0.010850694444444444,135.53602430555554,0)" xlink:href="#al"/><use transform="matrix(0.010850694444444444,0,0,0.010850694444444444,144.24913194444443,0)" xlink:href="#am"/><use transform="matrix(0.010850694444444444,0,0,0.010850694444444444,149.63107638888889,0)" xlink:href="#aB"/><use transform="matrix(0.010850694444444444,0,0,0.010850694444444444,163.23784722222223,0)" xlink:href="#ah"/><use transform="matrix(0.010850694444444444,0,0,0.010850694444444444,170.5078125,0)" xlink:href="#am"/><use transform="matrix(0.010850694444444444,0,0,0.010850694444444444,175.88975694444446,0)" xlink:href="#ai"/><use transform="matrix(0.010850694444444444,0,0,0.010850694444444444,189.21440972222223,0)" xlink:href="#ao"/></g><g id="v"><use transform="matrix(0.010850694444444444,0,0,0.010850694444444444,0,0)" xlink:href="#as"/><use transform="matrix(0.010850694444444444,0,0,0.010850694444444444,12.489149305555555,0)" xlink:href="#am"/><use transform="matrix(0.010850694444444444,0,0,0.010850694444444444,17.87109375,0)" xlink:href="#ai"/><use transform="matrix(0.010850694444444444,0,0,0.010850694444444444,31.195746527777775,0)" xlink:href="#az"/><use transform="matrix(0.010850694444444444,0,0,0.010850694444444444,36.57769097222222,0)" xlink:href="#ar"/><use transform="matrix(0.010850694444444444,0,0,0.010850694444444444,49.05598958333333,0)" xlink:href="#ah"/><use transform="matrix(0.010850694444444444,0,0,0.010850694444444444,56.32595486111111,0)" xlink:href="#am"/><use transform="matrix(0.010850694444444444,0,0,0.010850694444444444,61.70789930555555,0)" xlink:href="#ai"/><use transform="matrix(0.010850694444444444,0,0,0.010850694444444444,75.03255208333333,0)" xlink:href="#ao"/><use transform="matrix(0.010850694444444444,0,0,0.010850694444444444,88.1618923611111,0)" xlink:href="#aq"/><use transform="matrix(0.010850694444444444,0,0,0.010850694444444444,98.29644097222221,0)" xlink:href="#an"/><use transform="matrix(0.010850694444444444,0,0,0.010850694444444444,111.90321180555556,0)" xlink:href="#ak"/><use transform="matrix(0.010850694444444444,0,0,0.010850694444444444,124.85894097222221,0)" xlink:href="#ag"/><use transform="matrix(0.010850694444444444,0,0,0.010850694444444444,136.58854166666666,0)" xlink:href="#at"/><use transform="matrix(0.010850694444444444,0,0,0.010850694444444444,149.28385416666666,0)" xlink:href="#al"/><use transform="matrix(0.010850694444444444,0,0,0.010850694444444444,157.99696180555554,0)" xlink:href="#am"/><use transform="matrix(0.010850694444444444,0,0,0.010850694444444444,163.37890625,0)" xlink:href="#aB"/><use transform="matrix(0.010850694444444444,0,0,0.010850694444444444,176.98567708333334,0)" xlink:href="#ah"/><use transform="matrix(0.010850694444444444,0,0,0.010850694444444444,184.25564236111111,0)" xlink:href="#am"/><use transform="matrix(0.010850694444444444,0,0,0.010850694444444444,189.6375868055556,0)" xlink:href="#ai"/><use transform="matrix(0.010850694444444444,0,0,0.010850694444444444,202.96223958333331,0)" xlink:href="#ao"/></g><g id="w"><use transform="matrix(0.010416666666666668,0,0,0.010416666666666668,0,0)" xlink:href="#as"/><use transform="matrix(0.010416666666666668,0,0,0.010416666666666668,11.885416666666668,0)" xlink:href="#ar"/><use transform="matrix(0.010416666666666668,0,0,0.010416666666666668,23.864583333333336,0)" xlink:href="#al"/><use transform="matrix(0.010416666666666668,0,0,0.010416666666666668,31.54166666666667,0)" xlink:href="#at"/><use transform="matrix(0.010416666666666668,0,0,0.010416666666666668,43.72916666666667,0)" xlink:href="#au"/><use transform="matrix(0.010416666666666668,0,0,0.010416666666666668,56.34375000000001,0)" xlink:href="#ar"/><use transform="matrix(0.010416666666666668,0,0,0.010416666666666668,68.32291666666667,0)" xlink:href="#al"/><use transform="matrix(0.010416666666666668,0,0,0.010416666666666668,76.35416666666667,0)" xlink:href="#av"/><use transform="matrix(0.010416666666666668,0,0,0.010416666666666668,84.13541666666667,0)" xlink:href="#aw"/><use transform="matrix(0.010416666666666668,0,0,0.010416666666666668,97.14583333333334,0)" xlink:href="#ax"/><use transform="matrix(0.010416666666666668,0,0,0.010416666666666668,110.11458333333334,0)" xlink:href="#ax"/><use transform="matrix(0.010416666666666668,0,0,0.010416666666666668,123.08333333333334,0)" xlink:href="#ay"/></g><path d="M295 13c-75 0-135-60-135-135s60-135 135-135 135 60 135 135S370 13 295 13" id="aG"/><g id="x"><use transform="matrix(0.010850694444444444,0,0,0.010850694444444444,0,0)" xlink:href="#aG"/><use transform="matrix(0.010850694444444444,0,0,0.010850694444444444,6.401909722222222,0)" xlink:href="#aG"/><use transform="matrix(0.010850694444444444,0,0,0.010850694444444444,12.803819444444445,0)" xlink:href="#aG"/><use transform="matrix(0.010850694444444444,0,0,0.010850694444444444,19.205729166666668,0)" xlink:href="#aG"/></g><path d="M180 0v-1490h901v168H370v510h643v168H370V0H180" id="aH"/><g id="y"><use transform="matrix(0.010850694444444444,0,0,0.010850694444444444,0,0)" xlink:href="#aH"/><use transform="matrix(0.010850694444444444,0,0,0.010850694444444444,12.57595486111111,0)" xlink:href="#ar"/><use transform="matrix(0.010850694444444444,0,0,0.010850694444444444,24.72873263888889,0)" xlink:href="#as"/><use transform="matrix(0.010850694444444444,0,0,0.010850694444444444,36.783854166666664,0)" xlink:href="#ai"/><use transform="matrix(0.010850694444444444,0,0,0.010850694444444444,50.10850694444444,0)" xlink:href="#al"/><use transform="matrix(0.010850694444444444,0,0,0.010850694444444444,58.82161458333333,0)" xlink:href="#am"/><use transform="matrix(0.010850694444444444,0,0,0.010850694444444444,64.20355902777777,0)" xlink:href="#ah"/><use transform="matrix(0.010850694444444444,0,0,0.010850694444444444,71.25651041666666,0)" xlink:href="#ak"/></g><g id="z"><use transform="matrix(0.010850694444444444,0,0,0.010850694444444444,0,0)" xlink:href="#aA"/><use transform="matrix(0.010850694444444444,0,0,0.010850694444444444,13.975694444444445,0)" xlink:href="#ak"/><use transform="matrix(0.010850694444444444,0,0,0.010850694444444444,26.931423611111104,0)" xlink:href="#ag"/><use transform="matrix(0.010850694444444444,0,0,0.010850694444444444,38.66102430555555,0)" xlink:href="#ah"/><use transform="matrix(0.010850694444444444,0,0,0.010850694444444444,46.03949652777778,0)" xlink:href="#ar"/><use transform="matrix(0.010850694444444444,0,0,0.010850694444444444,58.517795138888886,0)" xlink:href="#af"/><use transform="matrix(0.010850694444444444,0,0,0.010850694444444444,71.65798611111111,0)" xlink:href="#al"/><use transform="matrix(0.010850694444444444,0,0,0.010850694444444444,80.02387152777779,0)" xlink:href="#ar"/><use transform="matrix(0.010850694444444444,0,0,0.010850694444444444,92.5021701388889,0)" xlink:href="#ao"/><use transform="matrix(0.010850694444444444,0,0,0.010850694444444444,105.63151041666666,0)" xlink:href="#ah"/><use transform="matrix(0.010850694444444444,0,0,0.010850694444444444,112.68446180555556,0)" xlink:href="#ag"/></g><g id="A"><use transform="matrix(0.010850694444444444,0,0,0.010850694444444444,0,0)" xlink:href="#at"/><use transform="matrix(0.010850694444444444,0,0,0.010850694444444444,12.6953125,0)" xlink:href="#af"/><use transform="matrix(0.010850694444444444,0,0,0.010850694444444444,25.83550347222222,0)" xlink:href="#ag"/><use transform="matrix(0.010850694444444444,0,0,0.010850694444444444,37.565104166666664,0)" xlink:href="#ah"/><use transform="matrix(0.010850694444444444,0,0,0.010850694444444444,44.61805555555556,0)" xlink:href="#ai"/><use transform="matrix(0.010850694444444444,0,0,0.010850694444444444,57.94270833333333,0)" xlink:href="#aj"/><use transform="matrix(0.010850694444444444,0,0,0.010850694444444444,77.40885416666667,0)" xlink:href="#ak"/><use transform="matrix(0.010850694444444444,0,0,0.010850694444444444,90.36458333333334,0)" xlink:href="#al"/><use transform="matrix(0.010850694444444444,0,0,0.010850694444444444,98.73046875000001,0)" xlink:href="#aq"/><use transform="matrix(0.010850694444444444,0,0,0.010850694444444444,109.6137152777778,0)" xlink:href="#am"/><use transform="matrix(0.010850694444444444,0,0,0.010850694444444444,114.99565972222224,0)" xlink:href="#an"/><path d="M-1.1 4.54h130.8v1.52H-1.1z"/></g><g id="B"><use transform="matrix(0.010850694444444444,0,0,0.010850694444444444,0,0)" xlink:href="#al"/><use transform="matrix(0.010850694444444444,0,0,0.010850694444444444,7.996961805555555,0)" xlink:href="#ak"/><use transform="matrix(0.010850694444444444,0,0,0.010850694444444444,20.95269097222222,0)" xlink:href="#ag"/><use transform="matrix(0.010850694444444444,0,0,0.010850694444444444,32.682291666666664,0)" xlink:href="#ah"/><use transform="matrix(0.010850694444444444,0,0,0.010850694444444444,40.060763888888886,0)" xlink:href="#ar"/><use transform="matrix(0.010850694444444444,0,0,0.010850694444444444,52.5390625,0)" xlink:href="#af"/><use transform="matrix(0.010850694444444444,0,0,0.010850694444444444,65.67925347222223,0)" xlink:href="#al"/><use transform="matrix(0.010850694444444444,0,0,0.010850694444444444,74.0451388888889,0)" xlink:href="#ar"/><use transform="matrix(0.010850694444444444,0,0,0.010850694444444444,86.52343750000001,0)" xlink:href="#ao"/><use transform="matrix(0.010850694444444444,0,0,0.010850694444444444,99.6527777777778,0)" xlink:href="#ah"/><use transform="matrix(0.010850694444444444,0,0,0.010850694444444444,106.92274305555556,0)" xlink:href="#aq"/><use transform="matrix(0.010850694444444444,0,0,0.010850694444444444,117.80598958333334,0)" xlink:href="#am"/><use transform="matrix(0.010850694444444444,0,0,0.010850694444444444,123.1879340277778,0)" xlink:href="#an"/><path d="M-1.1 4.54h139v1.52h-139z"/></g><g id="C"><use transform="matrix(0.010850694444444444,0,0,0.010850694444444444,0,0)" xlink:href="#ae"/><use transform="matrix(0.010850694444444444,0,0,0.010850694444444444,16.23263888888889,0)" xlink:href="#ai"/><use transform="matrix(0.010850694444444444,0,0,0.010850694444444444,29.557291666666664,0)" xlink:href="#aj"/><use transform="matrix(0.010850694444444444,0,0,0.010850694444444444,49.0234375,0)" xlink:href="#aj"/><use transform="matrix(0.010850694444444444,0,0,0.010850694444444444,68.48958333333333,0)" xlink:href="#ak"/><use transform="matrix(0.010850694444444444,0,0,0.010850694444444444,81.4453125,0)" xlink:href="#ao"/><use transform="matrix(0.010850694444444444,0,0,0.010850694444444444,94.57465277777777,0)" xlink:href="#ah"/><use transform="matrix(0.010850694444444444,0,0,0.010850694444444444,101.62760416666666,0)" xlink:href="#ag"/></g><g id="D"><use transform="matrix(0.010850694444444444,0,0,0.010850694444444444,0,0)" xlink:href="#at"/><use transform="matrix(0.010850694444444444,0,0,0.010850694444444444,12.6953125,0)" xlink:href="#ai"/><use transform="matrix(0.010850694444444444,0,0,0.010850694444444444,26.01996527777778,0)" xlink:href="#aj"/><use transform="matrix(0.010850694444444444,0,0,0.010850694444444444,45.48611111111111,0)" xlink:href="#aj"/><use transform="matrix(0.010850694444444444,0,0,0.010850694444444444,64.95225694444444,0)" xlink:href="#ak"/><use transform="matrix(0.010850694444444444,0,0,0.010850694444444444,77.90798611111111,0)" xlink:href="#ao"/><use transform="matrix(0.010850694444444444,0,0,0.010850694444444444,91.03732638888889,0)" xlink:href="#ah"/><use transform="matrix(0.010850694444444444,0,0,0.010850694444444444,98.09027777777777,0)" xlink:href="#ak"/><use transform="matrix(0.010850694444444444,0,0,0.010850694444444444,111.04600694444444,0)" xlink:href="#al"/><use transform="matrix(0.010850694444444444,0,0,0.010850694444444444,119.4118923611111,0)" xlink:href="#aq"/><use transform="matrix(0.010850694444444444,0,0,0.010850694444444444,130.29513888888889,0)" xlink:href="#am"/><use transform="matrix(0.010850694444444444,0,0,0.010850694444444444,135.67708333333334,0)" xlink:href="#an"/></g><g id="E"><use transform="matrix(0.010850694444444444,0,0,0.010850694444444444,0,0)" xlink:href="#al"/><use transform="matrix(0.010850694444444444,0,0,0.010850694444444444,7.996961805555555,0)" xlink:href="#ak"/><use transform="matrix(0.010850694444444444,0,0,0.010850694444444444,20.95269097222222,0)" xlink:href="#ag"/><use transform="matrix(0.010850694444444444,0,0,0.010850694444444444,32.682291666666664,0)" xlink:href="#ah"/><use transform="matrix(0.010850694444444444,0,0,0.010850694444444444,40.060763888888886,0)" xlink:href="#ar"/><use transform="matrix(0.010850694444444444,0,0,0.010850694444444444,52.5390625,0)" xlink:href="#af"/><use transform="matrix(0.010850694444444444,0,0,0.010850694444444444,65.67925347222223,0)" xlink:href="#al"/><use transform="matrix(0.010850694444444444,0,0,0.010850694444444444,74.0451388888889,0)" xlink:href="#ar"/><use transform="matrix(0.010850694444444444,0,0,0.010850694444444444,86.52343750000001,0)" xlink:href="#ao"/><use transform="matrix(0.010850694444444444,0,0,0.010850694444444444,99.6527777777778,0)" xlink:href="#ah"/><use transform="matrix(0.010850694444444444,0,0,0.010850694444444444,106.92274305555556,0)" xlink:href="#aq"/><use transform="matrix(0.010850694444444444,0,0,0.010850694444444444,117.80598958333334,0)" xlink:href="#am"/><use transform="matrix(0.010850694444444444,0,0,0.010850694444444444,123.1879340277778,0)" xlink:href="#an"/></g><g id="F"><use transform="matrix(0.010850694444444444,0,0,0.010850694444444444,0,0)" xlink:href="#at"/><use transform="matrix(0.010850694444444444,0,0,0.010850694444444444,12.6953125,0)" xlink:href="#ai"/><use transform="matrix(0.010850694444444444,0,0,0.010850694444444444,26.01996527777778,0)" xlink:href="#aj"/><use transform="matrix(0.010850694444444444,0,0,0.010850694444444444,45.48611111111111,0)" xlink:href="#aj"/><use transform="matrix(0.010850694444444444,0,0,0.010850694444444444,64.95225694444444,0)" xlink:href="#ak"/><use transform="matrix(0.010850694444444444,0,0,0.010850694444444444,77.90798611111111,0)" xlink:href="#ao"/><use transform="matrix(0.010850694444444444,0,0,0.010850694444444444,91.03732638888889,0)" xlink:href="#ah"/></g><path d="M158 0v-1490h180v865h22l478-493h223L593-638 1096 0H865L456-523 338-412V0H158" id="aI"/><g id="G"><use transform="matrix(0.010850694444444444,0,0,0.010850694444444444,0,0)" xlink:href="#aI"/><use transform="matrix(0.010850694444444444,0,0,0.010850694444444444,12.196180555555555,0)" xlink:href="#ar"/><use transform="matrix(0.010850694444444444,0,0,0.010850694444444444,24.674479166666664,0)" xlink:href="#al"/><use transform="matrix(0.010850694444444444,0,0,0.010850694444444444,33.38758680555555,0)" xlink:href="#aj"/><use transform="matrix(0.010850694444444444,0,0,0.010850694444444444,52.853732638888886,0)" xlink:href="#ar"/></g><g id="H"><use transform="matrix(0.010850694444444444,0,0,0.010850694444444444,0,0)" xlink:href="#ap"/><use transform="matrix(0.010850694444444444,0,0,0.010850694444444444,8.22482638888889,0)" xlink:href="#az"/><use transform="matrix(0.010850694444444444,0,0,0.010850694444444444,13.606770833333332,0)" xlink:href="#ar"/><use transform="matrix(0.010850694444444444,0,0,0.010850694444444444,26.085069444444443,0)" xlink:href="#aD"/><use transform="matrix(0.010850694444444444,0,0,0.010850694444444444,39.713541666666664,0)" xlink:href="#aD"/><use transform="matrix(0.010850694444444444,0,0,0.010850694444444444,53.342013888888886,0)" xlink:href="#ak"/><use transform="matrix(0.010850694444444444,0,0,0.010850694444444444,66.29774305555556,0)" xlink:href="#an"/></g><g id="I"><use transform="matrix(0.010850694444444444,0,0,0.010850694444444444,0,0)" xlink:href="#aC"/><use transform="matrix(0.010850694444444444,0,0,0.010850694444444444,13.606770833333332,0)" xlink:href="#ai"/><use transform="matrix(0.010850694444444444,0,0,0.010850694444444444,26.931423611111104,0)" xlink:href="#ai"/><use transform="matrix(0.010850694444444444,0,0,0.010850694444444444,40.256076388888886,0)" xlink:href="#az"/></g><g id="J"><use transform="matrix(0.010850694444444444,0,0,0.010850694444444444,0,0)" xlink:href="#ap"/><use transform="matrix(0.010850694444444444,0,0,0.010850694444444444,8.22482638888889,0)" xlink:href="#az"/><use transform="matrix(0.010850694444444444,0,0,0.010850694444444444,13.606770833333332,0)" xlink:href="#ar"/><use transform="matrix(0.010850694444444444,0,0,0.010850694444444444,26.085069444444443,0)" xlink:href="#aD"/><use transform="matrix(0.010850694444444444,0,0,0.010850694444444444,39.713541666666664,0)" xlink:href="#aD"/><use transform="matrix(0.010850694444444444,0,0,0.010850694444444444,53.342013888888886,0)" xlink:href="#ak"/><use transform="matrix(0.010850694444444444,0,0,0.010850694444444444,66.29774305555556,0)" xlink:href="#an"/><use transform="matrix(0.010850694444444444,0,0,0.010850694444444444,79.90451388888889,0)" xlink:href="#aq"/><use transform="matrix(0.010850694444444444,0,0,0.010850694444444444,90.78776041666666,0)" xlink:href="#aC"/><use transform="matrix(0.010850694444444444,0,0,0.010850694444444444,103.96050347222224,0)" xlink:href="#aF"/></g><g id="K"><use transform="matrix(0.010850694444444444,0,0,0.010850694444444444,0,0)" xlink:href="#aB"/><use transform="matrix(0.010850694444444444,0,0,0.010850694444444444,13.606770833333332,0)" xlink:href="#ai"/><use transform="matrix(0.010850694444444444,0,0,0.010850694444444444,26.931423611111104,0)" xlink:href="#ag"/><use transform="matrix(0.010850694444444444,0,0,0.010850694444444444,38.66102430555555,0)" xlink:href="#ah"/><use transform="matrix(0.010850694444444444,0,0,0.010850694444444444,45.71397569444444,0)" xlink:href="#ak"/><use transform="matrix(0.010850694444444444,0,0,0.010850694444444444,58.66970486111111,0)" xlink:href="#an"/><use transform="matrix(0.010850694444444444,0,0,0.010850694444444444,72.27647569444444,0)" xlink:href="#aq"/><use transform="matrix(0.010850694444444444,0,0,0.010850694444444444,82.41102430555556,0)" xlink:href="#ar"/><use transform="matrix(0.010850694444444444,0,0,0.010850694444444444,94.88932291666666,0)" xlink:href="#ah"/></g><g id="L"><use transform="matrix(0.010850694444444444,0,0,0.010850694444444444,0,0)" xlink:href="#ah"/><use transform="matrix(0.010850694444444444,0,0,0.010850694444444444,7.269965277777778,0)" xlink:href="#am"/><use transform="matrix(0.010850694444444444,0,0,0.010850694444444444,12.651909722222221,0)" xlink:href="#aj"/><use transform="matrix(0.010850694444444444,0,0,0.010850694444444444,32.11805555555556,0)" xlink:href="#ak"/><use transform="matrix(0.010850694444444444,0,0,0.010850694444444444,45.07378472222222,0)" xlink:href="#ag"/><use transform="matrix(0.010850694444444444,0,0,0.010850694444444444,56.803385416666664,0)" xlink:href="#ah"/><use transform="matrix(0.010850694444444444,0,0,0.010850694444444444,64.18185763888889,0)" xlink:href="#ar"/><use transform="matrix(0.010850694444444444,0,0,0.010850694444444444,76.66015625,0)" xlink:href="#aj"/><use transform="matrix(0.010850694444444444,0,0,0.010850694444444444,96.12630208333333,0)" xlink:href="#aB"/></g><path d="M645 0H180v-1490h484c435 0 692 280 692 742 0 466-257 748-711 748zM370-168h263c363 0 539-218 539-580 0-358-176-574-521-574H370v1154" id="aJ"/><path d="M180 0v-1490h270l367 940c28 72 75 218 110 339 35-117 81-264 110-339l362-940h271V0h-187c2-448-5-837 7-1287-157 497-311 829-483 1287H842C666-458 514-784 354-1284c12 438 5 843 7 1284H180" id="aK"/><g id="M"><use transform="matrix(0.010850694444444444,0,0,0.010850694444444444,0,0)" xlink:href="#aJ"/><use transform="matrix(0.010850694444444444,0,0,0.010850694444444444,16.03732638888889,0)" xlink:href="#aK"/><use transform="matrix(0.010850694444444444,0,0,0.010850694444444444,36.111111111111114,0)" xlink:href="#ag"/></g><g id="N"><use transform="matrix(0.010850694444444444,0,0,0.010850694444444444,0,0)" xlink:href="#ag"/><use transform="matrix(0.010850694444444444,0,0,0.010850694444444444,11.729600694444445,0)" xlink:href="#ak"/><use transform="matrix(0.010850694444444444,0,0,0.010850694444444444,24.68532986111111,0)" xlink:href="#ao"/><use transform="matrix(0.010850694444444444,0,0,0.010850694444444444,37.814670138888886,0)" xlink:href="#an"/><use transform="matrix(0.010850694444444444,0,0,0.010850694444444444,51.42144097222221,0)" xlink:href="#ak"/><use transform="matrix(0.010850694444444444,0,0,0.010850694444444444,64.37717013888889,0)" xlink:href="#al"/><use transform="matrix(0.010850694444444444,0,0,0.010850694444444444,72.74305555555556,0)" xlink:href="#aq"/><use transform="matrix(0.010850694444444444,0,0,0.010850694444444444,83.62630208333334,0)" xlink:href="#am"/><use transform="matrix(0.010850694444444444,0,0,0.010850694444444444,89.0082465277778,0)" xlink:href="#an"/></g><g id="O"><use transform="matrix(0.010850694444444444,0,0,0.010850694444444444,0,0)" xlink:href="#al"/><use transform="matrix(0.010850694444444444,0,0,0.010850694444444444,7.996961805555555,0)" xlink:href="#ak"/><use transform="matrix(0.010850694444444444,0,0,0.010850694444444444,20.95269097222222,0)" xlink:href="#at"/><use transform="matrix(0.010850694444444444,0,0,0.010850694444444444,33.64800347222222,0)" xlink:href="#ak"/><use transform="matrix(0.010850694444444444,0,0,0.010850694444444444,46.603732638888886,0)" xlink:href="#am"/><use transform="matrix(0.010850694444444444,0,0,0.010850694444444444,51.98567708333333,0)" xlink:href="#as"/><use transform="matrix(0.010850694444444444,0,0,0.010850694444444444,64.0407986111111,0)" xlink:href="#ak"/><use transform="matrix(0.010850694444444444,0,0,0.010850694444444444,76.99652777777777,0)" xlink:href="#al"/><use transform="matrix(0.010850694444444444,0,0,0.010850694444444444,85.36241319444444,0)" xlink:href="#aq"/><use transform="matrix(0.010850694444444444,0,0,0.010850694444444444,96.24565972222221,0)" xlink:href="#am"/><use transform="matrix(0.010850694444444444,0,0,0.010850694444444444,101.62760416666666,0)" xlink:href="#an"/></g><g id="P"><use transform="matrix(0.010850694444444444,0,0,0.010850694444444444,0,0)" xlink:href="#am"/><use transform="matrix(0.010850694444444444,0,0,0.010850694444444444,5.381944444444445,0)" xlink:href="#ao"/><use transform="matrix(0.010850694444444444,0,0,0.010850694444444444,18.51128472222222,0)" xlink:href="#ah"/></g><g id="Q"><use transform="matrix(0.010850694444444444,0,0,0.010850694444444444,0,0)" xlink:href="#aj"/><use transform="matrix(0.010850694444444444,0,0,0.010850694444444444,19.466145833333332,0)" xlink:href="#ak"/><use transform="matrix(0.010850694444444444,0,0,0.010850694444444444,32.421875,0)" xlink:href="#ag"/><use transform="matrix(0.010850694444444444,0,0,0.010850694444444444,44.15147569444444,0)" xlink:href="#ag"/><use transform="matrix(0.010850694444444444,0,0,0.010850694444444444,55.881076388888886,0)" xlink:href="#ar"/><use transform="matrix(0.010850694444444444,0,0,0.010850694444444444,68.359375,0)" xlink:href="#aD"/><use transform="matrix(0.010850694444444444,0,0,0.010850694444444444,81.98784722222223,0)" xlink:href="#ak"/></g><g id="R"><use transform="matrix(0.010850694444444444,0,0,0.010850694444444444,0,0)" xlink:href="#aC"/><use transform="matrix(0.010850694444444444,0,0,0.010850694444444444,13.606770833333332,0)" xlink:href="#az"/><use transform="matrix(0.010850694444444444,0,0,0.010850694444444444,18.98871527777778,0)" xlink:href="#ai"/><use transform="matrix(0.010850694444444444,0,0,0.010850694444444444,32.31336805555556,0)" xlink:href="#aC"/></g><g id="S"><use transform="matrix(0.010850694444444444,0,0,0.010850694444444444,0,0)" xlink:href="#ag"/><use transform="matrix(0.010850694444444444,0,0,0.010850694444444444,11.729600694444445,0)" xlink:href="#ak"/><use transform="matrix(0.010850694444444444,0,0,0.010850694444444444,24.68532986111111,0)" xlink:href="#ao"/><use transform="matrix(0.010850694444444444,0,0,0.010850694444444444,37.814670138888886,0)" xlink:href="#ah"/><use transform="matrix(0.010850694444444444,0,0,0.010850694444444444,45.084635416666664,0)" xlink:href="#aq"/><use transform="matrix(0.010850694444444444,0,0,0.010850694444444444,55.21918402777778,0)" xlink:href="#ar"/><use transform="matrix(0.010850694444444444,0,0,0.010850694444444444,67.69748263888889,0)" xlink:href="#ah"/></g><path d="M657 26c-323 0-524-166-541-416h195c15 169 171 246 346 246 202 0 356-106 356-265 5-203-294-238-475-293-239-73-380-191-380-389 0-252 224-419 512-419 294 0 499 171 508 396H992c-17-145-151-228-328-228-193 0-321 102-321 242 0 156 175 211 284 241l149 41c160 44 422 134 422 412 0 244-197 432-541 432" id="aL"/><path d="M692-1560L212 224H46l480-1784h166" id="aM"/><g id="T"><use transform="matrix(0.010850694444444444,0,0,0.010850694444444444,0,0)" xlink:href="#aL"/><use transform="matrix(0.010850694444444444,0,0,0.010850694444444444,14.2578125,0)" xlink:href="#ak"/><use transform="matrix(0.010850694444444444,0,0,0.010850694444444444,27.213541666666664,0)" xlink:href="#ao"/><use transform="matrix(0.010850694444444444,0,0,0.010850694444444444,40.34288194444444,0)" xlink:href="#an"/><use transform="matrix(0.010850694444444444,0,0,0.010850694444444444,53.94965277777778,0)" xlink:href="#ag"/><use transform="matrix(0.010850694444444444,0,0,0.010850694444444444,65.67925347222221,0)" xlink:href="#aM"/><use transform="matrix(0.010850694444444444,0,0,0.010850694444444444,73.68706597222221,0)" xlink:href="#aA"/><use transform="matrix(0.010850694444444444,0,0,0.010850694444444444,87.66276041666666,0)" xlink:href="#ak"/><use transform="matrix(0.010850694444444444,0,0,0.010850694444444444,100.61848958333333,0)" xlink:href="#at"/><use transform="matrix(0.010850694444444444,0,0,0.010850694444444444,113.31380208333333,0)" xlink:href="#ak"/><use transform="matrix(0.010850694444444444,0,0,0.010850694444444444,126.26953125,0)" xlink:href="#am"/><use transform="matrix(0.010850694444444444,0,0,0.010850694444444444,131.65147569444446,0)" xlink:href="#as"/><use transform="matrix(0.010850694444444444,0,0,0.010850694444444444,143.70659722222223,0)" xlink:href="#ak"/><use transform="matrix(0.010850694444444444,0,0,0.010850694444444444,156.66232638888889,0)" xlink:href="#ag"/></g><g id="U"><use transform="matrix(0.010850694444444444,0,0,0.010850694444444444,0,0)" xlink:href="#aH"/><use transform="matrix(0.010850694444444444,0,0,0.010850694444444444,12.57595486111111,0)" xlink:href="#ar"/><use transform="matrix(0.010850694444444444,0,0,0.010850694444444444,24.72873263888889,0)" xlink:href="#as"/><use transform="matrix(0.010850694444444444,0,0,0.010850694444444444,36.783854166666664,0)" xlink:href="#ai"/><use transform="matrix(0.010850694444444444,0,0,0.010850694444444444,50.10850694444444,0)" xlink:href="#al"/><use transform="matrix(0.010850694444444444,0,0,0.010850694444444444,58.82161458333333,0)" xlink:href="#am"/><use transform="matrix(0.010850694444444444,0,0,0.010850694444444444,64.20355902777777,0)" xlink:href="#ah"/><use transform="matrix(0.010850694444444444,0,0,0.010850694444444444,71.25651041666666,0)" xlink:href="#ak"/><use transform="matrix(0.010850694444444444,0,0,0.010850694444444444,84.21223958333333,0)" xlink:href="#an"/></g><path d="M180 0v-1490h190v1322h690V0H180" id="aN"/><g id="V"><use transform="matrix(0.010850694444444444,0,0,0.010850694444444444,0,0)" xlink:href="#aN"/><use transform="matrix(0.010850694444444444,0,0,0.010850694444444444,12.565104166666666,0)" xlink:href="#am"/><use transform="matrix(0.010850694444444444,0,0,0.010850694444444444,17.94704861111111,0)" xlink:href="#aI"/><use transform="matrix(0.010850694444444444,0,0,0.010850694444444444,29.64409722222222,0)" xlink:href="#ak"/><use transform="matrix(0.010850694444444444,0,0,0.010850694444444444,42.599826388888886,0)" xlink:href="#ag"/></g><g id="W"><use transform="matrix(0.010850694444444444,0,0,0.010850694444444444,0,0)" xlink:href="#aA"/><use transform="matrix(0.010850694444444444,0,0,0.010850694444444444,13.975694444444445,0)" xlink:href="#ak"/><use transform="matrix(0.010850694444444444,0,0,0.010850694444444444,26.931423611111104,0)" xlink:href="#aB"/><use transform="matrix(0.010850694444444444,0,0,0.010850694444444444,40.53819444444444,0)" xlink:href="#az"/><use transform="matrix(0.010850694444444444,0,0,0.010850694444444444,45.920138888888886,0)" xlink:href="#am"/><use transform="matrix(0.010850694444444444,0,0,0.010850694444444444,51.30208333333333,0)" xlink:href="#ak"/><use transform="matrix(0.010850694444444444,0,0,0.010850694444444444,64.2578125,0)" xlink:href="#ag"/></g><g id="X"><use transform="matrix(0.010850694444444444,0,0,0.010850694444444444,0,0)" xlink:href="#at"/><use transform="matrix(0.010850694444444444,0,0,0.010850694444444444,12.6953125,0)" xlink:href="#ai"/><use transform="matrix(0.010850694444444444,0,0,0.010850694444444444,26.01996527777778,0)" xlink:href="#aj"/><use transform="matrix(0.010850694444444444,0,0,0.010850694444444444,45.48611111111111,0)" xlink:href="#aj"/><use transform="matrix(0.010850694444444444,0,0,0.010850694444444444,64.95225694444444,0)" xlink:href="#ak"/><use transform="matrix(0.010850694444444444,0,0,0.010850694444444444,77.90798611111111,0)" xlink:href="#ao"/><use transform="matrix(0.010850694444444444,0,0,0.010850694444444444,91.03732638888889,0)" xlink:href="#ah"/><use transform="matrix(0.010850694444444444,0,0,0.010850694444444444,98.30729166666666,0)" xlink:href="#aq"/><use transform="matrix(0.010850694444444444,0,0,0.010850694444444444,109.19053819444444,0)" xlink:href="#am"/><use transform="matrix(0.010850694444444444,0,0,0.010850694444444444,114.57248263888889,0)" xlink:href="#an"/></g><g id="Y"><use transform="matrix(0.010850694444444444,0,0,0.010850694444444444,0,0)" xlink:href="#aK"/><use transform="matrix(0.010850694444444444,0,0,0.010850694444444444,20.07378472222222,0)" xlink:href="#ai"/><use transform="matrix(0.010850694444444444,0,0,0.010850694444444444,33.3984375,0)" xlink:href="#an"/><use transform="matrix(0.010850694444444444,0,0,0.010850694444444444,47.00520833333333,0)" xlink:href="#ak"/><use transform="matrix(0.010850694444444444,0,0,0.010850694444444444,59.960937499999986,0)" xlink:href="#al"/><use transform="matrix(0.010850694444444444,0,0,0.010850694444444444,68.32682291666666,0)" xlink:href="#ar"/><use transform="matrix(0.010850694444444444,0,0,0.010850694444444444,80.80512152777777,0)" xlink:href="#ah"/><use transform="matrix(0.010850694444444444,0,0,0.010850694444444444,87.85807291666666,0)" xlink:href="#ai"/><use transform="matrix(0.010850694444444444,0,0,0.010850694444444444,101.18272569444441,0)" xlink:href="#al"/></g><g id="Z"><use transform="matrix(0.010850694444444444,0,0,0.010850694444444444,0,0)" xlink:href="#aj"/><use transform="matrix(0.010850694444444444,0,0,0.010850694444444444,19.466145833333332,0)" xlink:href="#ai"/><use transform="matrix(0.010850694444444444,0,0,0.010850694444444444,32.79079861111111,0)" xlink:href="#an"/><use transform="matrix(0.010850694444444444,0,0,0.010850694444444444,46.39756944444444,0)" xlink:href="#ak"/><use transform="matrix(0.010850694444444444,0,0,0.010850694444444444,59.35329861111111,0)" xlink:href="#al"/><use transform="matrix(0.010850694444444444,0,0,0.010850694444444444,67.71918402777777,0)" xlink:href="#ar"/><use transform="matrix(0.010850694444444444,0,0,0.010850694444444444,80.19748263888889,0)" xlink:href="#ah"/><use transform="matrix(0.010850694444444444,0,0,0.010850694444444444,87.25043402777777,0)" xlink:href="#ai"/><use transform="matrix(0.010850694444444444,0,0,0.010850694444444444,100.57508680555556,0)" xlink:href="#al"/><use transform="matrix(0.010850694444444444,0,0,0.010850694444444444,108.94097222222221,0)" xlink:href="#aq"/><use transform="matrix(0.010850694444444444,0,0,0.010850694444444444,119.82421875,0)" xlink:href="#am"/><use transform="matrix(0.010850694444444444,0,0,0.010850694444444444,125.20616319444444,0)" xlink:href="#an"/><path d="M-1.1 4.54h141.03v1.52H-1.1z"/></g><path d="M180 0v-1490h510c348 0 508 209 508 474 0 266-160 477-507 477H370V0H180zm190-706h312c236 0 327-133 327-310 0-176-91-307-329-307H370v617" id="aO"/><g id="aa"><use transform="matrix(0.010850694444444444,0,0,0.010850694444444444,0,0)" xlink:href="#aO"/><use transform="matrix(0.010850694444444444,0,0,0.010850694444444444,14.073350694444445,0)" xlink:href="#ai"/><use transform="matrix(0.010850694444444444,0,0,0.010850694444444444,27.39800347222222,0)" xlink:href="#ag"/><use transform="matrix(0.010850694444444444,0,0,0.010850694444444444,39.127604166666664,0)" xlink:href="#ah"/><use transform="matrix(0.010850694444444444,0,0,0.010850694444444444,46.18055555555556,0)" xlink:href="#ag"/></g><g id="ab"><use transform="matrix(0.010850694444444444,0,0,0.010850694444444444,0,0)" xlink:href="#aH"/><use transform="matrix(0.010850694444444444,0,0,0.010850694444444444,13.118489583333332,0)" xlink:href="#az"/><use transform="matrix(0.010850694444444444,0,0,0.010850694444444444,18.50043402777778,0)" xlink:href="#ar"/><use transform="matrix(0.010850694444444444,0,0,0.010850694444444444,30.97873263888889,0)" xlink:href="#aD"/><use transform="matrix(0.010850694444444444,0,0,0.010850694444444444,44.60720486111111,0)" xlink:href="#ag"/></g><g id="ac"><use transform="matrix(0.010850694444444444,0,0,0.010850694444444444,0,0)" xlink:href="#aA"/><use transform="matrix(0.010850694444444444,0,0,0.010850694444444444,13.975694444444445,0)" xlink:href="#ak"/><use transform="matrix(0.010850694444444444,0,0,0.010850694444444444,26.931423611111104,0)" xlink:href="#ap"/><use transform="matrix(0.010850694444444444,0,0,0.010850694444444444,34.50520833333333,0)" xlink:href="#ak"/><use transform="matrix(0.010850694444444444,0,0,0.010850694444444444,47.460937499999986,0)" xlink:href="#al"/><use transform="matrix(0.010850694444444444,0,0,0.010850694444444444,55.45789930555554,0)" xlink:href="#ak"/><use transform="matrix(0.010850694444444444,0,0,0.010850694444444444,68.41362847222221,0)" xlink:href="#ao"/><use transform="matrix(0.010850694444444444,0,0,0.010850694444444444,81.54296874999999,0)" xlink:href="#at"/><use transform="matrix(0.010850694444444444,0,0,0.010850694444444444,94.23828124999997,0)" xlink:href="#ak"/><use transform="matrix(0.010850694444444444,0,0,0.010850694444444444,107.19401041666666,0)" xlink:href="#an"/></g><g id="ad"><use transform="matrix(0.010850694444444444,0,0,0.010850694444444444,0,0)" xlink:href="#aA"/><use transform="matrix(0.010850694444444444,0,0,0.010850694444444444,13.975694444444445,0)" xlink:href="#ak"/><use transform="matrix(0.010850694444444444,0,0,0.010850694444444444,26.931423611111104,0)" xlink:href="#aB"/><use transform="matrix(0.010850694444444444,0,0,0.010850694444444444,40.53819444444444,0)" xlink:href="#az"/><use transform="matrix(0.010850694444444444,0,0,0.010850694444444444,45.920138888888886,0)" xlink:href="#am"/><use transform="matrix(0.010850694444444444,0,0,0.010850694444444444,51.30208333333333,0)" xlink:href="#ak"/><use transform="matrix(0.010850694444444444,0,0,0.010850694444444444,64.2578125,0)" xlink:href="#ag"/></g></defs></g></svg>